# xmcd
#
# Track frame offsets:
#	150
#	13546
#	31365
#	46713
#	78438
#	95439
#
# Disc length: 1518 seconds
#
# Revision: 0
# Processed by: cddbd v1.5.2PL0 Copyright (c) Steve Scherf et al.
# Submitted via: audiograbber 1.83.01
#
DISCID=3805ec06
DTITLE=Janus - Auf Winterreise - Die Zugaben
DYEAR=2012
DGENRE=Acoustic
TTITLE0=Wolken über Orgonon
TTITLE1=Das Gesicht
TTITLE2=Der Mörder in mir
TTITLE3=Saitenspiel
TTITLE4=Sag doch was
TTITLE5=Neunundachtzig
EXTD=
EXTT0=
EXTT1=
EXTT2=
EXTT3=
EXTT4=
EXTT5=
PLAYORDER=
